<svg id="Capa_1" enable-background="new 0 0 512.003 512.003" height="512" viewBox="0 0 512.003 512.003" width="512" xmlns="http://www.w3.org/2000/svg"><g><path d="m133.09 54.533v158.221c0 2.86 1.502 5.496 3.954 6.947l26.427 15.65c2.533 1.502 5.69 1.502 8.234 0l30.381-17.99 33.956 20.114 37.259-70.17v-123.179c0-14.22-5.682-17.584-14.999-26.9-9.246-9.245-59.322-14.986-73.399-15.078h-.337c-28.349.01-51.476 23.996-51.476 52.385z" fill="#cbe5e8"/><path d="m184.903 2.148c14.077.092 26.816 5.833 36.061 15.078 9.316 9.317 15.078 22.188 15.078 36.408v344.65c0 4.096 2.166 7.886 5.69 9.981l22.627 13.403c3.81 2.258 8.551 2.258 12.361 0l28.317-16.774 28.317 16.774c3.81 2.258 8.55 2.258 12.361 0l28.318-16.774 28.317 16.774c3.81 2.258 8.55 2.258 12.361 0l28.318-16.774 28.307 16.774c3.81 2.258 8.55 2.258 12.361 0l22.617-13.403c3.524-2.094 5.69-5.884 5.69-9.981v-344.65c0-28.44-23.046-51.486-51.476-51.486h-275.625z" fill="#deecf1"/><path d="m512 53.63v344.65c0 4.096-2.166 7.886-5.69 9.981l-22.617 13.403c-2.289 1.349-4.904 1.9-7.447 1.624v-369.658c0-28.44-23.046-51.486-51.476-51.486h35.754c28.429 0 51.476 23.046 51.476 51.486z" fill="#cbe5e8"/><path d="m200.523 307.471c-2.95 20.88-12.45 41.01-28.51 57.07-30.37 30.37-75.29 37.3-112.31 20.79-10.95-4.87-21.21-11.8-30.19-20.79-39.35-39.35-39.35-103.15 0-142.5s103.15-39.35 142.5 0c23.29 23.29 32.8 55.14 28.51 85.43z" fill="#ffe177"/><circle cx="100.765" cy="293.292" fill="#fece85" r="68.293"/><path d="m109.871 285.644-.676-.239c-6.466-2.284-12.05-4.257-14.475-6.554-1.079-1.024-1.504-3.132-1.03-5.126.29-1.22 1.155-3.381 3.697-4.147 6.292-1.895 10.363 1.284 10.807 1.654 3.279 2.729 8.15 2.284 10.881-.996 2.729-3.28 2.284-8.151-.996-10.881-2.48-2.064-5.919-3.926-9.989-4.963v-1.671c0-4.267-3.459-7.726-7.726-7.726-4.268 0-7.726 3.459-7.726 7.726v2.161c-7.018 2.227-12.235 7.911-13.983 15.276-1.764 7.431.319 15.06 5.436 19.91 4.81 4.558 11.494 6.919 19.957 9.909l.674.238c5.5 1.944 5.664 6.146 5.273 8.478-.662 3.936-3.974 8.19-9.68 8.227-6.068.048-7.82-.233-12.401-3.23-3.571-2.336-8.36-1.335-10.695 2.236-2.336 3.571-1.335 8.359 2.236 10.695 5.012 3.279 8.797 4.748 13.184 5.36v1.884c0 4.267 3.459 7.726 7.726 7.726 4.268 0 7.726-3.459 7.726-7.726v-2.696c9.597-3.068 15.735-11.546 17.142-19.914 1.914-11.395-4.26-21.686-15.362-25.611z" fill="#ffe177"/><path d="m200.523 307.471c-2.95 20.88-12.45 41.01-28.51 57.07-30.37 30.37-75.29 37.3-112.31 20.79 2.94-20.88 12.45-41.02 28.51-57.08 30.37-30.37 75.3-37.3 112.31-20.78z" fill="#fece85"/><circle cx="169.058" cy="409.096" fill="#ffe177" r="100.762"/><circle cx="169.058" cy="409.096" fill="#fece85" r="68.293"/><path d="m178.163 401.448-.668-.236c-6.469-2.285-12.055-4.258-14.48-6.556-1.08-1.024-1.505-3.133-1.031-5.127.29-1.22 1.155-3.38 3.697-4.146 6.291-1.894 10.362 1.284 10.806 1.654 3.279 2.729 8.151 2.284 10.881-.996 2.729-3.28 2.284-8.151-.996-10.881-2.48-2.065-5.919-3.926-9.989-4.963v-1.672c0-4.267-3.459-7.726-7.726-7.726-4.268 0-7.726 3.459-7.726 7.726v2.161c-7.016 2.226-12.234 7.91-13.982 15.274-1.764 7.432.319 15.061 5.436 19.911 4.811 4.559 11.498 6.921 19.964 9.911l.665.235c5.502 1.945 5.666 6.147 5.274 8.479-.662 3.936-3.973 8.189-9.681 8.226-6.062.051-7.819-.232-12.399-3.23-3.573-2.337-8.36-1.336-10.696 2.236-2.336 3.571-1.335 8.36 2.235 10.696 5.013 3.279 8.798 4.749 13.185 5.36v1.884c0 4.267 3.459 7.726 7.726 7.726 4.268 0 7.726-3.459 7.726-7.726v-2.696c9.597-3.068 15.735-11.545 17.142-19.914 1.914-11.393-4.259-21.684-15.363-25.61z" fill="#ffe177"/><g fill="#7ca1b1"><path d="m466.012 314.018-.843-.298c-8.616-3.044-15.421-5.448-18.742-8.596-1.848-1.752-2.585-5.06-1.832-8.231.456-1.923 1.833-5.334 5.926-6.567 8.813-2.655 14.63 1.898 15.265 2.427 3.279 2.729 8.151 2.283 10.881-.997 2.729-3.28 2.283-8.152-.998-10.881-1.283-1.067-5.997-4.636-13.155-6.149v-3.602c0-4.267-3.459-7.726-7.726-7.726s-7.726 3.459-7.726 7.726v4.13c-.331.09-.661.177-.997.278-8.282 2.495-14.452 9.147-16.504 17.794-2.044 8.612.346 17.431 6.237 23.015 5.706 5.408 13.878 8.295 24.225 11.951l.84.297c8.491 3.002 8.305 9.884 7.831 12.705-.954 5.676-5.728 11.81-13.957 11.865-7.959.06-10.42-.342-16.538-4.344-3.571-2.337-8.358-1.335-10.695 2.236-2.336 3.571-1.335 8.359 2.236 10.695 6.563 4.293 11.373 5.989 17.321 6.583v4.06c0 4.267 3.459 7.726 7.726 7.726s7.726-3.459 7.726-7.726v-4.802c12.01-3.215 19.706-13.543 21.419-23.733 2.231-13.269-4.972-25.259-17.92-29.836z"/><g><path d="m399.941 349.096h-128.152c-4.268 0-7.726-3.459-7.726-7.726s3.459-7.726 7.726-7.726h128.152c4.268 0 7.726 3.459 7.726 7.726s-3.458 7.726-7.726 7.726z"/><path d="m399.941 309.869h-128.152c-4.268 0-7.726-3.459-7.726-7.726s3.459-7.726 7.726-7.726h128.152c4.268 0 7.726 3.459 7.726 7.726.001 4.267-3.458 7.726-7.726 7.726z"/></g><g><path d="m476.605 123.709h-204.816c-4.268 0-7.726-3.459-7.726-7.726s3.459-7.726 7.726-7.726h204.816c4.268 0 7.726 3.459 7.726 7.726.001 4.267-3.458 7.726-7.726 7.726z"/><path d="m399.941 84.481h-128.152c-4.268 0-7.726-3.459-7.726-7.726s3.459-7.726 7.726-7.726h128.152c4.268 0 7.726 3.459 7.726 7.726.001 4.267-3.458 7.726-7.726 7.726z"/></g><g><path d="m476.605 224.237h-204.816c-4.268 0-7.726-3.459-7.726-7.726s3.459-7.726 7.726-7.726h204.816c4.268 0 7.726 3.459 7.726 7.726.001 4.266-3.458 7.726-7.726 7.726z"/><path d="m399.941 185.009h-128.152c-4.268 0-7.726-3.459-7.726-7.726s3.459-7.726 7.726-7.726h128.152c4.268 0 7.726 3.459 7.726 7.726s-3.458 7.726-7.726 7.726z"/></g></g></g></svg>