<svg xmlns="http://www.w3.org/2000/svg" xmlns:xlink="http://www.w3.org/1999/xlink" width="100" zoomAndPan="magnify" viewBox="0 0 75 74.999997" height="100" preserveAspectRatio="xMidYMid meet" version="1.0"><defs><g/><clipPath id="051e1739cf"><path d="M 45 11.152344 L 75 11.152344 L 75 48.652344 L 45 48.652344 Z M 45 11.152344 " clip-rule="nonzero"/></clipPath><clipPath id="be23cd4ec6"><path d="M 37.5 11.152344 L 60 11.152344 L 60 45 L 37.5 45 Z M 37.5 11.152344 " clip-rule="nonzero"/></clipPath></defs><g clip-path="url(#051e1739cf)"><path fill="#240f63" d="M 71.089844 19.1875 C 69.128906 16.542969 66.558594 14.5 63.585938 13.21875 L 65.265625 12.511719 C 65.628906 12.363281 65.796875 11.949219 65.648438 11.589844 C 65.496094 11.226562 65.082031 11.058594 64.722656 11.210938 L 61.394531 12.601562 C 61.222656 12.671875 61.085938 12.8125 61.011719 12.984375 C 60.941406 13.160156 60.941406 13.351562 61.015625 13.527344 L 62.402344 16.839844 C 62.515625 17.113281 62.777344 17.277344 63.054688 17.277344 C 63.144531 17.277344 63.238281 17.257812 63.328125 17.222656 C 63.6875 17.070312 63.859375 16.65625 63.707031 16.296875 L 62.949219 14.484375 C 69.203125 17.144531 73.300781 23.265625 73.300781 30.1875 C 73.300781 39.589844 65.652344 47.238281 56.25 47.238281 C 52.921875 47.238281 49.6875 46.269531 46.890625 44.429688 C 46.5625 44.214844 46.125 44.304688 45.910156 44.628906 C 45.695312 44.957031 45.785156 45.394531 46.113281 45.609375 C 49.140625 47.601562 52.644531 48.652344 56.25 48.652344 C 66.433594 48.652344 74.71875 40.371094 74.71875 30.1875 C 74.714844 26.195312 73.464844 22.390625 71.089844 19.1875 Z M 71.089844 19.1875 " fill-opacity="1" fill-rule="nonzero"/></g><g clip-path="url(#be23cd4ec6)"><path fill="#240f63" d="M 44.605469 39.089844 C 44.214844 39.089844 43.898438 39.40625 43.898438 39.796875 L 43.898438 41.921875 C 40.894531 38.757812 39.199219 34.566406 39.199219 30.1875 C 39.199219 20.785156 46.847656 13.136719 56.25 13.136719 C 57.269531 13.136719 58.1875 13.203125 59.058594 13.347656 C 59.445312 13.414062 59.808594 13.152344 59.871094 12.765625 C 59.933594 12.382812 59.675781 12.019531 59.289062 11.953125 C 58.34375 11.796875 57.347656 11.722656 56.25 11.722656 C 46.066406 11.71875 37.785156 20.003906 37.785156 30.1875 C 37.785156 34.917969 39.613281 39.449219 42.851562 42.871094 L 40.820312 42.871094 C 40.429688 42.871094 40.113281 43.1875 40.113281 43.578125 C 40.113281 43.96875 40.429688 44.285156 40.820312 44.285156 L 44.605469 44.285156 C 44.996094 44.285156 45.3125 43.96875 45.3125 43.578125 L 45.3125 39.796875 C 45.3125 39.40625 44.996094 39.089844 44.605469 39.089844 Z M 44.605469 39.089844 " fill-opacity="1" fill-rule="nonzero"/></g><path fill="#240f63" d="M 69.433594 29.402344 L 67.453125 28.949219 C 67.359375 28.042969 67.15625 27.152344 66.847656 26.296875 L 68.433594 25.03125 C 68.695312 24.828125 68.773438 24.472656 68.632812 24.175781 C 68.179688 23.234375 67.628906 22.351562 66.988281 21.550781 C 66.347656 20.746094 65.609375 20.011719 64.792969 19.363281 C 64.535156 19.15625 64.171875 19.15625 63.914062 19.363281 L 62.324219 20.628906 C 61.558594 20.136719 60.738281 19.742188 59.878906 19.449219 L 59.878906 17.417969 C 59.878906 17.089844 59.648438 16.804688 59.328125 16.730469 C 57.296875 16.265625 55.203125 16.265625 53.171875 16.730469 C 52.851562 16.800781 52.621094 17.089844 52.621094 17.417969 L 52.621094 19.449219 C 51.761719 19.742188 50.941406 20.136719 50.175781 20.628906 L 48.585938 19.363281 C 48.328125 19.15625 47.964844 19.15625 47.707031 19.363281 C 46.890625 20.011719 46.152344 20.746094 45.511719 21.550781 C 44.871094 22.351562 44.320312 23.234375 43.867188 24.175781 C 43.726562 24.472656 43.808594 24.828125 44.0625 25.03125 L 45.652344 26.296875 C 45.34375 27.152344 45.140625 28.042969 45.046875 28.949219 L 43.066406 29.402344 C 42.746094 29.472656 42.519531 29.757812 42.519531 30.089844 C 42.515625 31.132812 42.632812 32.167969 42.859375 33.167969 C 43.089844 34.167969 43.433594 35.152344 43.886719 36.089844 C 44.03125 36.386719 44.359375 36.546875 44.679688 36.472656 L 46.660156 36.019531 C 47.140625 36.792969 47.707031 37.503906 48.355469 38.144531 L 47.472656 39.976562 C 47.332031 40.273438 47.414062 40.628906 47.671875 40.835938 C 48.484375 41.484375 49.367188 42.039062 50.292969 42.484375 C 51.214844 42.929688 52.199219 43.273438 53.214844 43.503906 C 53.539062 43.578125 53.867188 43.417969 54.007812 43.121094 L 54.890625 41.292969 C 55.800781 41.402344 56.699219 41.402344 57.609375 41.292969 L 58.488281 43.121094 C 58.609375 43.371094 58.859375 43.523438 59.125 43.523438 C 59.179688 43.523438 59.230469 43.515625 59.285156 43.503906 C 60.296875 43.273438 61.285156 42.929688 62.207031 42.484375 C 63.132812 42.039062 64.015625 41.484375 64.828125 40.835938 C 65.085938 40.628906 65.167969 40.273438 65.023438 39.976562 L 64.144531 38.144531 C 64.792969 37.503906 65.359375 36.792969 65.839844 36.019531 L 67.820312 36.472656 C 68.140625 36.546875 68.46875 36.386719 68.613281 36.089844 C 69.0625 35.152344 69.410156 34.167969 69.640625 33.167969 C 69.867188 32.167969 69.984375 31.132812 69.980469 30.089844 C 69.980469 29.761719 69.753906 29.472656 69.433594 29.402344 Z M 68.261719 32.851562 C 68.097656 33.570312 67.867188 34.28125 67.570312 34.964844 L 65.648438 34.527344 C 65.339844 34.457031 65.023438 34.597656 64.871094 34.875 C 64.335938 35.84375 63.640625 36.714844 62.808594 37.457031 C 62.574219 37.667969 62.507812 38.007812 62.644531 38.289062 L 63.5 40.070312 C 62.898438 40.507812 62.257812 40.890625 61.59375 41.210938 C 60.929688 41.53125 60.234375 41.792969 59.515625 41.988281 L 58.65625 40.210938 C 58.519531 39.925781 58.214844 39.769531 57.902344 39.820312 C 57.347656 39.914062 56.792969 39.960938 56.25 39.960938 C 55.707031 39.960938 55.148438 39.914062 54.597656 39.820312 C 54.285156 39.769531 53.980469 39.925781 53.84375 40.210938 L 52.984375 41.988281 C 52.265625 41.792969 51.570312 41.53125 50.90625 41.210938 C 50.242188 40.890625 49.601562 40.507812 49 40.070312 L 49.855469 38.289062 C 49.992188 38.007812 49.925781 37.667969 49.6875 37.457031 C 48.859375 36.714844 48.164062 35.84375 47.628906 34.875 C 47.476562 34.597656 47.160156 34.457031 46.851562 34.527344 L 44.929688 34.964844 C 44.632812 34.28125 44.402344 33.570312 44.238281 32.851562 C 44.074219 32.136719 43.976562 31.398438 43.945312 30.652344 L 45.867188 30.210938 C 46.175781 30.140625 46.398438 29.875 46.417969 29.5625 C 46.476562 28.449219 46.726562 27.367188 47.152344 26.339844 C 47.269531 26.050781 47.183594 25.714844 46.9375 25.515625 L 45.398438 24.285156 C 45.75 23.628906 46.160156 23.007812 46.617188 22.429688 C 47.078125 21.855469 47.59375 21.316406 48.15625 20.828125 L 49.699219 22.058594 C 49.945312 22.257812 50.292969 22.265625 50.550781 22.082031 C 51.457031 21.4375 52.457031 20.953125 53.523438 20.648438 C 53.828125 20.5625 54.039062 20.285156 54.039062 19.96875 L 54.039062 17.996094 C 55.503906 17.726562 56.996094 17.726562 58.460938 17.996094 L 58.460938 19.96875 C 58.460938 20.285156 58.671875 20.5625 58.972656 20.648438 C 60.039062 20.953125 61.042969 21.4375 61.949219 22.082031 C 62.207031 22.265625 62.550781 22.257812 62.800781 22.058594 L 64.34375 20.828125 C 64.90625 21.316406 65.421875 21.855469 65.882812 22.429688 C 66.339844 23.007812 66.75 23.628906 67.101562 24.285156 L 65.5625 25.515625 C 65.316406 25.714844 65.226562 26.050781 65.347656 26.339844 C 65.773438 27.367188 66.019531 28.449219 66.082031 29.5625 C 66.097656 29.875 66.324219 30.140625 66.628906 30.210938 L 68.554688 30.652344 C 68.523438 31.398438 68.425781 32.136719 68.261719 32.851562 Z M 68.261719 32.851562 " fill-opacity="1" fill-rule="nonzero"/><path fill="#9fd078" d="M 68.554688 30.652344 C 68.523438 31.398438 68.425781 32.136719 68.261719 32.851562 C 68.097656 33.570312 67.867188 34.28125 67.570312 34.964844 L 65.648438 34.527344 C 65.339844 34.457031 65.023438 34.597656 64.871094 34.875 C 64.335938 35.84375 63.640625 36.714844 62.808594 37.457031 C 62.574219 37.667969 62.507812 38.007812 62.644531 38.289062 L 63.5 40.070312 C 62.898438 40.507812 62.257812 40.890625 61.59375 41.210938 C 60.929688 41.53125 60.234375 41.792969 59.515625 41.988281 L 58.65625 40.210938 C 58.519531 39.925781 58.214844 39.769531 57.902344 39.820312 C 57.347656 39.914062 56.792969 39.960938 56.25 39.960938 C 55.707031 39.960938 55.148438 39.914062 54.597656 39.820312 C 54.285156 39.769531 53.980469 39.925781 53.84375 40.210938 L 52.984375 41.988281 C 52.265625 41.792969 51.570312 41.53125 50.90625 41.210938 C 50.242188 40.890625 49.601562 40.507812 49 40.070312 L 49.855469 38.289062 C 49.992188 38.007812 49.925781 37.667969 49.6875 37.457031 C 48.859375 36.714844 48.164062 35.84375 47.628906 34.875 C 47.476562 34.597656 47.160156 34.457031 46.851562 34.527344 L 44.929688 34.964844 C 44.632812 34.28125 44.402344 33.570312 44.238281 32.851562 C 44.074219 32.136719 43.976562 31.398438 43.945312 30.652344 L 45.867188 30.210938 C 46.175781 30.140625 46.398438 29.875 46.417969 29.5625 C 46.476562 28.449219 46.726562 27.367188 47.152344 26.339844 C 47.269531 26.050781 47.183594 25.714844 46.9375 25.515625 L 45.398438 24.285156 C 45.75 23.628906 46.160156 23.007812 46.617188 22.429688 C 47.078125 21.855469 47.59375 21.316406 48.15625 20.828125 L 49.699219 22.058594 C 49.945312 22.257812 50.292969 22.265625 50.550781 22.082031 C 51.457031 21.4375 52.457031 20.953125 53.523438 20.648438 C 53.828125 20.5625 54.039062 20.285156 54.039062 19.96875 L 54.039062 17.996094 C 55.503906 17.726562 56.996094 17.726562 58.460938 17.996094 L 58.460938 19.96875 C 58.460938 20.285156 58.671875 20.5625 58.972656 20.648438 C 60.039062 20.953125 61.042969 21.4375 61.949219 22.082031 C 62.207031 22.265625 62.550781 22.257812 62.800781 22.058594 L 64.34375 20.828125 C 64.90625 21.316406 65.421875 21.855469 65.882812 22.429688 C 66.339844 23.007812 66.75 23.628906 67.101562 24.285156 L 65.5625 25.515625 C 65.316406 25.714844 65.226562 26.050781 65.347656 26.339844 C 65.773438 27.367188 66.019531 28.449219 66.082031 29.5625 C 66.097656 29.875 66.324219 30.140625 66.628906 30.210938 Z M 68.554688 30.652344 " fill-opacity="1" fill-rule="nonzero"/><path fill="#240f63" d="M 56.25 22.203125 C 51.847656 22.203125 48.265625 25.785156 48.265625 30.1875 C 48.265625 34.589844 51.847656 38.171875 56.25 38.171875 C 60.652344 38.171875 64.234375 34.589844 64.234375 30.1875 C 64.234375 25.785156 60.652344 22.203125 56.25 22.203125 Z M 56.25 36.757812 C 52.625 36.757812 49.679688 33.8125 49.679688 30.1875 C 49.679688 26.5625 52.625 23.617188 56.25 23.617188 C 59.875 23.617188 62.820312 26.5625 62.820312 30.1875 C 62.820312 33.808594 59.875 36.757812 56.25 36.757812 Z M 56.25 36.757812 " fill-opacity="1" fill-rule="nonzero"/><path fill="#f9d762" d="M 62.820312 30.1875 C 62.820312 33.808594 59.875 36.757812 56.25 36.757812 C 52.625 36.757812 49.679688 33.808594 49.679688 30.1875 C 49.679688 26.5625 52.625 23.617188 56.25 23.617188 C 59.875 23.617188 62.820312 26.5625 62.820312 30.1875 Z M 62.820312 30.1875 " fill-opacity="1" fill-rule="nonzero"/><path fill="#240f63" d="M 58.289062 29.148438 C 58.679688 29.148438 58.996094 28.832031 58.996094 28.441406 L 58.996094 28.148438 C 58.996094 27.117188 58.15625 26.277344 57.125 26.277344 L 56.957031 26.277344 L 56.957031 25.820312 C 56.957031 25.429688 56.640625 25.113281 56.25 25.113281 C 55.859375 25.113281 55.542969 25.429688 55.542969 25.820312 L 55.542969 26.277344 L 55.375 26.277344 C 54.34375 26.277344 53.503906 27.117188 53.503906 28.148438 L 53.503906 29.023438 C 53.503906 30.054688 54.34375 30.894531 55.375 30.894531 L 57.125 30.894531 C 57.375 30.894531 57.582031 31.101562 57.582031 31.351562 L 57.582031 32.226562 C 57.582031 32.476562 57.375 32.683594 57.125 32.683594 L 55.375 32.683594 C 55.125 32.683594 54.917969 32.476562 54.917969 32.226562 L 54.917969 31.933594 C 54.917969 31.542969 54.601562 31.226562 54.210938 31.226562 C 53.820312 31.226562 53.503906 31.542969 53.503906 31.933594 L 53.503906 32.226562 C 53.503906 33.257812 54.34375 34.097656 55.375 34.097656 L 55.542969 34.097656 L 55.542969 34.554688 C 55.542969 34.945312 55.859375 35.261719 56.25 35.261719 C 56.640625 35.261719 56.957031 34.945312 56.957031 34.554688 L 56.957031 34.097656 L 57.125 34.097656 C 58.15625 34.097656 58.996094 33.257812 58.996094 32.226562 L 58.996094 31.351562 C 58.996094 30.320312 58.15625 29.480469 57.125 29.480469 L 55.375 29.480469 C 55.125 29.480469 54.917969 29.273438 54.917969 29.023438 L 54.917969 28.148438 C 54.917969 27.898438 55.125 27.691406 55.375 27.691406 L 57.125 27.691406 C 57.375 27.691406 57.582031 27.898438 57.582031 28.148438 L 57.582031 28.441406 C 57.582031 28.832031 57.898438 29.148438 58.289062 29.148438 Z M 58.289062 29.148438 " fill-opacity="1" fill-rule="nonzero"/><g fill="#0652e9" fill-opacity="1"><g transform="translate(0.118672, 45.749995)"><g><path d="M 2.25 0 L 9.808594 0 C 16.105469 0 21.257812 -5.113281 21.257812 -11.449219 C 21.257812 -17.785156 16.105469 -22.898438 9.808594 -22.898438 L 2.25 -22.898438 Z M 7.289062 -4.464844 L 7.289062 -18.433594 L 9.769531 -18.433594 C 13.394531 -18.433594 16.21875 -15.417969 16.21875 -11.449219 C 16.21875 -7.480469 13.394531 -4.464844 9.769531 -4.464844 Z M 7.289062 -4.464844 "/></g></g></g><g fill="#0652e9" fill-opacity="1"><g transform="translate(24.128809, 45.749995)"><g><path d="M 2.441406 0 L 7.480469 0 L 7.480469 -22.898438 L 2.441406 -22.898438 Z M 2.441406 0 "/></g></g></g><g fill="#5271ff" fill-opacity="1"><g transform="translate(7.153854, 68.202053)"><g><path d="M 9.828125 0.21875 C 14.53125 0.21875 18.304688 -3.578125 18.304688 -8.257812 C 18.304688 -12.9375 14.53125 -16.734375 9.828125 -16.734375 C 5.148438 -16.734375 1.347656 -12.9375 1.347656 -8.257812 C 1.347656 -3.578125 5.148438 0.21875 9.828125 0.21875 Z M 9.828125 -1.542969 C 6.109375 -1.542969 3.109375 -4.515625 3.109375 -8.257812 C 3.109375 -12 6.109375 -14.972656 9.828125 -14.972656 C 13.570312 -14.972656 16.542969 -12 16.542969 -8.257812 C 16.542969 -4.515625 13.570312 -1.542969 9.828125 -1.542969 Z M 9.828125 -1.542969 "/></g></g></g><g fill="#5271ff" fill-opacity="1"><g transform="translate(34.210746, 68.202053)"><g><path d="M 13.871094 -16.515625 L 13.871094 -2.945312 L 3.660156 -16.515625 L 2.007812 -16.515625 L 2.007812 0 L 3.769531 0 L 3.769531 -13.570312 L 13.957031 0 L 15.605469 0 L 15.605469 -16.515625 Z M 13.871094 -16.515625 "/></g></g></g><g fill="#5271ff" fill-opacity="1"><g transform="translate(59.203308, 68.202053)"><g><path d="M 11.175781 -14.808594 L 11.175781 -16.515625 L 2.148438 -16.515625 L 2.148438 0 L 11.175781 0 L 11.175781 -1.707031 L 3.910156 -1.707031 L 3.910156 -7.402344 L 10.238281 -7.402344 L 10.238281 -9.109375 L 3.910156 -9.109375 L 3.910156 -14.808594 Z M 11.175781 -14.808594 "/></g></g></g></svg>