<svg id="Capa_1" enable-background="new 0 0 512 512" height="512" viewBox="0 0 512 512" width="512" xmlns="http://www.w3.org/2000/svg"><g><path d="m403.812 287.029v-29.277c0-6.821-5.529-12.35-12.35-12.35h-151.307c-5.136 23.807-21.299 43.547-42.863 53.603.952.235 1.941.373 2.965.373h-3.789c-9.265 4.188-19.495 6.593-30.261 6.782-.849 1.675-1.337 3.562-1.337 5.568v29.277c0 6.821 5.529 12.35 12.35 12.35h23.038c-4.351 0-8.169 2.256-10.369 5.656 2.466-.808 5.056-1.253 7.698-1.253h101.927c22.693 0 41.156 18.463 41.156 41.157v6.25c0 .797-.237 1.535-.63 2.166-.728 1.169-2.015 1.954-3.49 1.954h-53.948c-10.691 0-19.389 8.698-19.389 19.389s8.698 19.389 19.389 19.389h76.122c5.178 0 10.047-2.017 13.71-5.679l29.398-29.398c-2.2-3.4-6.018-5.656-10.369-5.656 6.821 0 12.35-5.529 12.35-12.35v-29.277c0-6.82-5.529-12.35-12.35-12.35h-23.038c6.82 0 12.35-5.529 12.35-12.35v-29.277c0-6.821-5.529-12.35-12.35-12.35h23.038c6.82.003 12.349-5.526 12.349-12.347z" fill="#ffd15b"/><g><g><g><path d="m391.462 245.403h-43.167c6.821 0 12.35 5.529 12.35 12.35v29.277c0 6.821-5.529 12.35-12.35 12.35h43.167c6.821 0 12.35-5.529 12.35-12.35v-29.277c0-6.821-5.529-12.35-12.35-12.35z" fill="#ffc344"/></g><g><path d="m368.424 299.379h-171.956c-9.265 4.188-19.495 6.593-30.261 6.782-.848 1.675-1.337 3.562-1.337 5.568v29.277c0 6.821 5.529 12.35 12.35 12.35h191.205c6.82 0 12.35-5.529 12.35-12.35v-29.277c-.001-6.821-5.53-12.35-12.351-12.35z" fill="#ffc344"/></g><g><path d="m368.424 299.379h-42.793c6.821 0 12.35 5.529 12.35 12.35v29.277c0 6.821-5.529 12.35-12.35 12.35h42.793c6.82 0 12.35-5.529 12.35-12.35v-29.277c0-6.821-5.529-12.35-12.35-12.35z" fill="#feb237"/></g><g><path d="m391.462 353.355h-43.167c6.821 0 12.35 5.529 12.35 12.35v29.277c0 6.82-5.529 12.35-12.35 12.35h43.167c6.821 0 12.35-5.529 12.35-12.35v-29.277c0-6.821-5.529-12.35-12.35-12.35z" fill="#ffc344"/></g><g><path d="m336.548 409.286h-53.948c-10.691 0-19.389 8.698-19.389 19.389s8.698 19.389 19.389 19.389h76.122c5.178 0 10.047-2.017 13.71-5.679l29.398-29.398c-2.2-3.4-6.018-5.656-10.369-5.656h-51.424c-.726 1.169-2.013 1.955-3.489 1.955z" fill="#ffc344"/></g><g><path d="m360.645 419.681v28.29c4.452-.435 8.582-2.38 11.788-5.585l29.398-29.398c-2.2-3.4-6.017-5.656-10.369-5.656h-43.167c6.821-.001 12.35 5.528 12.35 12.349z" fill="#feb237"/></g></g><g><g><g><path d="m295.86 0c-59.62 0-107.952 48.332-107.952 107.952 0 19.627 5.24 38.03 14.394 53.889 14.237 7.955 25.694 20.292 32.552 35.177 17.356 11.911 38.365 18.886 61.006 18.886 59.62 0 107.952-48.332 107.952-107.952s-48.332-107.952-107.952-107.952z" fill="#ffd15b"/></g><path d="m295.86 0c-6.126 0-12.13.518-17.978 1.499 34.717 5.82 63.811 28.21 78.885 58.758 1.924.343 3.712 1.429 4.894 3.175 18.03 26.629 18.03 62.412 0 89.041-1.18 1.743-2.968 2.819-4.889 3.164-15.072 30.553-44.169 52.948-78.89 58.769 5.848.98 11.852 1.499 17.978 1.499 59.62 0 107.952-48.332 107.952-107.952s-48.332-107.953-107.952-107.953z" fill="#ffc344"/><g fill="#f6ab31"><path d="m282.661 71.457h26.397c6.45 0 11.698 5.247 11.698 11.697 0 4.143 3.357 7.5 7.5 7.5s7.5-3.357 7.5-7.5c0-14.721-11.977-26.697-26.698-26.697h-5.698v-10.099c0-4.143-3.357-7.5-7.5-7.5s-7.5 3.357-7.5 7.5v10.099h-5.699c-14.722 0-26.698 11.977-26.698 26.697v5.6c0 14.722 11.977 26.698 26.698 26.698h26.397c6.45 0 11.698 5.248 11.698 11.698v5.6c0 6.45-5.248 11.697-11.698 11.697h-26.397c-6.45 0-11.698-5.247-11.698-11.697 0-4.143-3.357-7.5-7.5-7.5s-7.5 3.357-7.5 7.5c0 14.721 11.977 26.697 26.698 26.697h5.699v10.099c0 4.143 3.357 7.5 7.5 7.5s7.5-3.357 7.5-7.5v-10.099h5.698c14.722 0 26.698-11.977 26.698-26.697v-5.6c0-14.722-11.977-26.698-26.698-26.698h-26.397c-6.45 0-11.698-5.248-11.698-11.698v-5.6c0-6.45 5.248-11.697 11.698-11.697z"/><path d="m361.66 63.432c-2.321-3.43-6.983-4.329-10.415-2.005-3.43 2.322-4.327 6.985-2.005 10.415 14.624 21.599 14.624 50.622 0 72.221-2.322 3.43-1.425 8.093 2.005 10.415 1.289.873 2.751 1.291 4.198 1.291 2.404 0 4.768-1.155 6.217-3.296 18.03-26.629 18.03-62.412 0-89.041z"/><path d="m240.475 61.426c-3.431-2.32-8.094-1.424-10.415 2.006-18.029 26.629-18.029 62.412 0 89.041 1.449 2.142 3.812 3.296 6.217 3.296 1.447 0 2.909-.418 4.198-1.29 3.43-2.322 4.327-6.985 2.005-10.416-14.623-21.599-14.623-50.622 0-72.221 2.322-3.431 1.424-8.094-2.005-10.416z"/></g></g></g><g><path d="m492.245 389.617-.496-.497c-18.639-18.644-48.863-18.646-67.504-.004l-52.54 52.54c-3.443 3.443-8.113 5.377-12.982 5.377h-76.121c-10.14 0-18.359-8.22-18.359-18.359 0-10.139 8.22-18.359 18.359-18.359h53.948c2.845 0 5.151-2.306 5.151-5.151v-6.251c0-23.299-18.888-42.187-42.187-42.187h-101.927c-6.306 0-12.392 2.313-17.106 6.502l-37.216 33.067v104.327h234.591c6.83 0 13.381-2.713 18.211-7.543l96.178-96.178c2.011-2.011 2.011-5.272 0-7.284z" fill="#ffcebf"/></g><g><g><path d="m492.245 389.617-.496-.497c-13.523-13.527-33.142-17.231-50.014-11.131 6.384 2.308 12.377 6.012 17.494 11.131l.496.497c2.012 2.011 2.012 5.273 0 7.284l-96.178 96.178c-4.83 4.83-11.381 7.543-18.211 7.543h32.52c6.83 0 13.381-2.713 18.211-7.543l96.178-96.178c2.011-2.011 2.011-5.272 0-7.284z" fill="#ffb09e"/></g><g><path d="m309.179 398.914v6.251c0 2.845-2.306 5.151-5.151 5.151h32.52c2.845 0 5.151-2.306 5.151-5.151v-6.251c0-23.299-18.888-42.187-42.187-42.187h-32.52c23.3 0 42.187 18.888 42.187 42.187z" fill="#ffb09e"/></g></g><g><g><path d="m18.247 378.406v123.292c0 5.69 4.612 10.302 10.302 10.302h105.444c5.69 0 10.302-4.612 10.302-10.302v-123.292c0-5.69-4.612-10.302-10.302-10.302h-105.445c-5.689.001-10.301 4.613-10.301 10.302z" fill="#a2e62e"/></g></g><g><path d="m133.993 368.105h-47.607c5.69 0 10.302 4.612 10.302 10.302v123.292c0 5.69-4.612 10.302-10.302 10.302h47.607c5.69 0 10.302-4.612 10.302-10.302v-123.293c-.001-5.689-4.613-10.301-10.302-10.301z" fill="#97d729"/></g><g><g><circle cx="164.845" cy="229.143" fill="#0ed2b3" r="78.083"/></g><g><path d="m164.845 151.06c-6.081 0-11.992.718-17.673 2.033 34.607 8.012 60.41 39.007 60.41 76.049s-25.803 68.038-60.41 76.049c5.681 1.315 11.592 2.033 17.673 2.033 43.124 0 78.083-34.959 78.083-78.083s-34.959-78.081-78.083-78.081z" fill="#0ab69f"/></g><g><path d="m156.834 262.93c-1.919 0-3.839-.732-5.303-2.196l-30.108-30.106c-2.929-2.93-2.929-7.678 0-10.606 2.931-2.931 7.68-2.928 10.606-.001l24.805 24.804 41.362-41.363c2.93-2.928 7.678-2.928 10.607 0 2.929 2.93 2.929 7.678 0 10.607l-46.666 46.666c-1.464 1.462-3.384 2.195-5.303 2.195z" fill="#fff"/></g></g></g></g></svg>