<svg id="Capa_1" enable-background="new 0 0 512 512" height="512" viewBox="0 0 512 512" width="512" xmlns="http://www.w3.org/2000/svg"><g><path d="m512 256c0 141.385-114.615 256-256 256s-256-114.615-256-256 114.615-256 256-256c67.053 0 128.084 25.779 173.724 67.967 1.519 1.404-.209 4.785 1.276 6.225 8.61 8.352 13.308 17.197 20.681 26.681.988 1.272 8.521.702 9.486 1.992 31.927 42.705 50.833 95.712 50.833 153.135z" fill="#4172cc"/><path d="m453.685 200.39c0 99.21-80.426 179.636-179.636 179.636s-179.637-80.426-179.637-179.636 80.426-179.637 179.636-179.637 179.637 80.426 179.637 179.637z" fill="#6990d7"/><path d="m181.772 329.703 42.738-31.286c2.104-1.54 5.036.152 4.754 2.745l-5.726 52.655c-.141 1.3.576 2.542 1.772 3.069l48.464 21.369c2.386 1.052 2.386 4.438 0 5.49l-48.464 21.369c-1.196.528-1.913 1.769-1.772 3.069l5.726 52.655c.282 2.593-2.65 4.285-4.754 2.745l-42.738-31.286c-1.055-.772-2.489-.772-3.544 0l-42.738 31.286c-2.104 1.54-5.036-.152-4.755-2.745l5.726-52.655c.141-1.3-.576-2.542-1.772-3.069l-48.464-21.369c-2.386-1.052-2.386-4.438 0-5.49l48.464-21.369c1.196-.528 1.913-1.769 1.772-3.069l-5.726-52.655c-.282-2.593 2.65-4.285 4.755-2.745l42.738 31.286c1.055.772 2.489.772 3.544 0z" fill="#6990d7"/><path d="m302.305 105.508 52.471-38.412c2.104-1.54 5.036.152 4.754 2.745l-7.03 64.647c-.141 1.3.576 2.542 1.772 3.069l59.501 26.236c2.386 1.052 2.386 4.438 0 5.49l-59.501 26.236c-1.196.528-1.913 1.769-1.772 3.069l7.03 64.647c.282 2.593-2.65 4.285-4.754 2.745l-52.471-38.412c-1.055-.772-2.489-.772-3.544 0l-52.471 38.412c-2.104 1.54-5.036-.152-4.754-2.745l7.03-64.647c.141-1.3-.576-2.542-1.772-3.069l-59.501-26.236c-2.386-1.052-2.386-4.438 0-5.49l59.501-26.236c1.196-.528 1.913-1.769 1.772-3.069l-7.03-64.647c-.282-2.593 2.65-4.285 4.754-2.745l52.471 38.412c1.055.772 2.489.772 3.544 0z" fill="#c8d2dc"/><path d="m399.666 299.465-49.231 31.214c-31.887 20.217-67.404 34.034-104.571 40.678-41.54 7.426-80.968 23.802-115.546 47.99l-41.723 29.187c-2.408 1.685-5.756.737-6.925-1.959l-55.326-127.689c-.877-2.025-.209-4.388 1.6-5.653l43.278-30.275c34.578-24.189 74.005-40.564 115.546-47.99 37.167-6.644 72.684-20.461 104.571-40.678l47.996-30.431c2.41-1.528 5.615-.542 6.75 2.076l55.357 127.76c.908 2.098.155 4.546-1.776 5.77z" fill="#71892e"/><path d="m361.598 284.994-29.11 18.457c-28.459 18.044-59.71 30.201-92.882 36.131-24.563 4.391-48.706 11.72-71.705 21.686-7.874 3.412-15.614 7.133-23.19 11.151l-33.144-76.493c24.974-13.893 52.343-23.704 80.387-28.718 41.522-7.423 80.637-22.64 116.26-45.225l20.46-12.973z" fill="#84b017"/><path d="m162.701 320.469c10.199 23.539-.615 50.89-24.154 61.09s-50.89-.615-61.09-24.154.615-50.89 24.154-61.09 50.891.614 61.09 24.154z" fill="#9bcf1b"/><path d="m145.653 327.856c6.12 14.124-.369 30.534-14.493 36.654s-30.534-.369-36.654-14.493.369-30.534 14.493-36.654 30.534.369 36.654 14.493z" fill="#b9e746"/><path d="m145.653 327.856c3.298 7.611 2.934 15.886-.313 22.857-.23.107-.462.212-.696.313-14.124 6.12-30.534-.369-36.654-14.492-3.298-7.611-2.934-15.886.313-22.857.23-.107.462-.212.697-.313 14.123-6.12 30.533.368 36.653 14.492z" fill="#caed73"/><path d="m90.536 455.393c-2.431 1.053-5.16 1.247-7.765.509-3.37-.953-6.101-3.343-7.494-6.557l-55.327-127.689c-2.184-5.04-.502-10.983 3.999-14.132l43.278-30.275c35.162-24.597 76.076-41.589 118.313-49.14 36.453-6.517 70.792-19.876 102.066-39.704l47.996-30.431c2.875-1.822 6.383-2.291 9.632-1.291 3.25 1 5.889 3.363 7.241 6.483l55.357 127.76c2.287 5.278.421 11.345-4.437 14.425l-49.231 31.214c-32.808 20.801-68.833 34.815-107.075 41.653-40.263 7.198-79.262 23.395-112.779 46.841l-41.723 29.187c-.649.453-1.338.837-2.051 1.147zm-57.045-137.538 53.442 123.339 39.392-27.556c35.163-24.597 76.076-41.589 118.313-49.14 36.453-6.517 70.792-19.876 102.066-39.704l47.554-30.151-53.488-123.445-45.701 28.976c-32.81 20.802-68.835 34.816-107.075 41.653-40.263 7.198-79.262 23.395-112.779 46.841zm309.574-148.112-.009.006c.003-.002.005-.004.009-.006z" fill="#9bcf1b"/><path d="m423.205 211.325-32.241 135.454c-.53 2.224-2.599 3.733-4.878 3.556l-58.118-4.512c-37.642-2.922-74.356-13.145-108.092-30.097-37.706-18.947-79.083-29.463-121.26-30.819l-50.892-1.636c-2.938-.094-5.05-2.859-4.37-5.718l32.223-135.379c.511-2.147 2.462-3.638 4.668-3.567l52.789 1.697c42.177 1.356 83.554 11.872 121.26 30.819 33.736 16.952 70.45 27.174 108.092 30.097l56.659 4.398c2.845.221 4.82 2.931 4.16 5.707z" fill="#7fa32f"/><path d="m383.456 235.377-19.175 80.56-34.365-2.668c-33.596-2.608-65.9-11.603-96.01-26.732-22.295-11.203-46.016-19.804-70.4-25.607-8.348-1.987-16.775-3.646-25.247-4.969l19.303-81.099c28.319 3.843 56.109 12.389 81.564 25.18 37.69 18.939 78.123 30.196 120.175 33.461z" fill="#9bcf1b"/><path d="m428.071 203.409c-2.002-2.747-5.092-4.475-8.485-4.738l-56.659-4.398c-36.919-2.867-72.415-12.749-105.504-29.376-38.339-19.266-81.276-30.178-124.165-31.557l-52.789-1.696c-5.49-.176-10.398 3.574-11.67 8.917l-32.224 135.378c-.811 3.407-.056 6.957 2.07 9.74 1.644 2.151 3.945 3.632 6.522 4.245.757.18 1.538.285 2.333.311l50.892 1.636c40.882 1.315 81.809 11.717 118.356 30.082 34.713 17.442 71.952 27.81 110.681 30.817l58.118 4.512c5.735.445 10.864-3.293 12.196-8.889l32.241-135.454c.786-3.309.089-6.782-1.913-9.53zm-43.426 139.825-56.138-4.358c-36.919-2.866-72.415-12.749-105.504-29.376-38.339-19.265-81.275-30.178-124.165-31.557l-48.048-1.544 31.125-130.766 50.894 1.636c40.882 1.315 81.809 11.717 118.356 30.081 34.711 17.441 71.949 27.81 110.681 30.817l53.95 4.188zm-44.544-90.843c-.347 2.542-2.689 4.32-5.231 3.973-10.578-1.445-21.054-3.403-31.398-5.866-24.599-5.855-48.463-14.562-71.259-26.017-2.292-1.152-3.217-3.944-2.065-6.236s3.943-3.217 6.236-2.065c31.465 15.812 65.024 26.234 99.744 30.979 2.542.352 4.32 2.69 3.973 5.232zm-7.235 19.215c-.368 2.539-2.724 4.299-5.263 3.932-9.687-1.403-19.286-3.237-28.776-5.496-24.601-5.855-48.472-14.565-71.266-26.018-2.292-1.152-3.217-3.944-2.065-6.236s3.943-3.218 6.236-2.065c30.693 15.423 63.396 25.725 97.203 30.621 2.531.368 4.298 2.722 3.931 5.262zm-5.168 19.473c-.372 2.538-2.731 4.295-5.269 3.923-9.508-1.393-18.932-3.201-28.25-5.419-24.602-5.856-48.476-14.566-71.269-26.019-2.292-1.152-3.217-3.944-2.065-6.236s3.943-3.216 6.236-2.065c30.536 15.344 63.067 25.62 96.694 30.548 2.537.368 4.295 2.73 3.923 5.268z" fill="#b9e746"/><path d="m183.792 225.151c-5.94 24.957-30.987 40.373-55.944 34.433s-40.373-30.987-34.433-55.944 30.987-40.373 55.944-34.433 40.373 30.988 34.433 55.944z" fill="#b9e746"/><path d="m145.057 187.283c-14.974-3.564-30.002 5.685-33.566 20.66s5.685 30.002 20.66 33.566c14.974 3.564 30.002-5.685 33.566-20.66 3.563-14.974-5.686-30.002-20.66-33.566z" fill="#caed73"/><path d="m145.057 187.283c-6.364-1.515-12.738-.715-18.237 1.856-.779 1.675-1.401 3.453-1.846 5.321-3.564 14.974 5.685 30.002 20.66 33.566 6.364 1.515 12.738.715 18.237-1.856.779-1.675 1.401-3.453 1.846-5.321 3.564-14.974-5.686-30.002-20.66-33.566z" fill="#dbf3a0"/><path d="m490.257 301.374c-.751 2.657-3.514 4.203-6.171 3.452l-38.493-10.876c-2.657-.751-4.203-3.514-3.452-6.171s3.514-4.203 6.171-3.452l38.493 10.876c2.657.75 4.203 3.513 3.452 6.171zm-53.486 7.638c-1.348-2.41-4.395-3.271-6.805-1.923s-3.271 4.395-1.923 6.805l9.764 17.455c1.348 2.41 4.395 3.271 6.805 1.923s3.271-4.395 1.923-6.805zm5.101-44.059c1.348 2.41 4.395 3.271 6.804 1.923l17.455-9.764c2.41-1.348 3.271-4.395 1.923-6.805s-4.395-3.271-6.805-1.923l-17.455 9.764c-2.409 1.348-3.27 4.394-1.922 6.805z" fill="#fff5f5"/><path d="m355 384.287c0 32.861-26.639 59.5-59.5 59.5s-59.5-26.639-59.5-59.5 26.639-59.5 59.5-59.5 59.5 26.639 59.5 59.5z" fill="#cc7400"/><path d="m335.5 384.287c0 22.091-17.909 40-40 40s-40-17.909-40-40 17.909-40 40-40 40 17.909 40 40z" fill="#ffc14f"/><path d="m335.5 384.287c0 3.813-.534 7.5-1.53 10.993-6.68 5.008-14.979 7.975-23.97 7.975-22.091 0-40-17.909-40-40 0-3.813.534-7.5 1.53-10.993 6.68-5.008 14.979-7.975 23.97-7.975 22.091 0 40 17.909 40 40z" fill="#fff36c"/><path d="m350.319 382.198c.712 18.95-8.668 35.879-22.812 46.176-4.791 3.488-11.518.082-11.518-5.844 0-2.279 1.052-4.456 2.9-5.79 10.722-7.741 17.178-20.664 16.249-35.098-1.299-20.184-17.574-36.269-37.779-37.184-14.777-.669-27.888 6.556-35.346 17.944-1.346 2.055-3.617 3.311-6.073 3.311h-.009c-5.712 0-9.229-6.343-6.108-11.127 10.29-15.77 28.519-26.348 48.97-25.139 27.797 1.643 50.48 24.924 51.526 52.751z" fill="#dd7d00"/><path d="m295.5 319.787c-35.565 0-64.5 28.935-64.5 64.5s28.935 64.5 64.5 64.5 64.5-28.935 64.5-64.5-28.935-64.5-64.5-64.5zm0 119c-30.051 0-54.5-24.449-54.5-54.5s24.449-54.5 54.5-54.5 54.5 24.449 54.5 54.5-24.449 54.5-54.5 54.5zm5-74.5v40c0 2.761-2.239 5-5 5s-5-2.239-5-5v-40c0-2.761 2.239-5 5-5s5 2.239 5 5z" fill="#ff9f22"/><path d="m276.784 438.737c15.621 15.621 15.621 40.948 0 56.569s-40.948 15.621-56.569 0-15.621-40.948 0-56.569 40.948-15.621 56.569 0zm176.893-41.699c-15.621-15.621-40.948-15.621-56.568 0-15.621 15.621-15.621 40.948 0 56.568 15.621 15.621 40.948 15.621 56.568 0 15.621-15.621 15.621-40.947 0-56.568z" fill="#909ba6"/><path d="m271.684 454.444c7.811 7.811 7.811 20.474 0 28.284-7.811 7.811-20.474 7.811-28.284 0-7.811-7.81-7.811-20.474 0-28.284 7.81-7.81 20.473-7.81 28.284 0zm169.416-52.306c-7.811-7.81-20.474-7.81-28.284 0s-7.811 20.474 0 28.284 20.474 7.81 28.284 0 7.81-20.474 0-28.284z" fill="#a2abb8"/><path d="m216.68 435.201c-17.545 17.546-17.545 46.094 0 63.64 17.545 17.545 46.094 17.545 63.64 0 17.545-17.546 17.545-46.094 0-63.64-17.546-17.545-46.095-17.545-63.64 0zm56.568 56.569c-13.646 13.646-35.851 13.646-49.498 0-13.646-13.646-13.646-35.851 0-49.497s35.851-13.646 49.498 0 13.647 35.851 0 49.497zm-7.071-42.426c1.952 1.953 1.952 5.119 0 7.071l-28.284 28.284c-1.953 1.952-5.119 1.952-7.071 0-1.952-1.953-1.952-5.119 0-7.071l28.284-28.284c1.953-1.953 5.119-1.953 7.071 0zm191.035-55.842c-17.545-17.545-46.094-17.545-63.64 0s-17.545 46.094 0 63.64 46.094 17.545 63.64 0 17.546-46.094 0-63.64zm-7.071 56.569c-13.646 13.646-35.851 13.646-49.498 0s-13.646-35.851 0-49.497 35.851-13.646 49.498 0 13.647 35.85 0 49.497zm-7.071-14.143c1.953 1.953 1.953 5.119 0 7.071-1.952 1.952-5.119 1.952-7.071 0l-28.284-28.284c-1.953-1.953-1.953-5.119 0-7.071 1.952-1.953 5.118-1.953 7.071 0z" fill="#c8d2dc"/><path d="m425.367 101.149-158.035 42.345c-5.335 1.429-10.818-1.736-12.247-7.071-1.429-5.335 1.736-10.818 7.071-12.247l158.034-42.346c5.335-1.429 10.818 1.736 12.247 7.071 1.43 5.335-1.736 10.818-7.07 12.248z" fill="#7c3f2c"/><path d="m303.38 123.482c2.287 8.535-2.778 17.309-11.314 19.596l-23.182 6.212 20.447 76.308c1.429 5.335-1.736 10.818-7.071 12.247l-86.933 23.294c-5.335 1.429-10.818-1.736-12.248-7.071l-49.176-183.526c-1.429-5.335 1.736-10.818 7.071-12.247l86.933-23.294c5.335-1.429 10.818 1.736 12.247 7.071l20.447 76.308 23.182-6.212c8.537-2.287 17.31 2.779 19.597 11.314zm126.344-55.515-18.672 5.003c-4.779 1.281-8.727 4.117-11.443 7.818-4.203-1.847-9.04-2.329-13.819-1.048-11.162 2.991-17.786 14.464-14.795 25.625 2.991 11.162 14.464 17.786 25.625 14.795 4.78-1.281 8.727-4.117 11.444-7.818 4.203 1.847 9.04 2.329 13.819 1.048l39.284-10.526c-9.402-12.575-19.933-24.258-31.443-34.897z" fill="#954c35"/><path d="m237.977 186.559c-21.605 5.789-43.813-7.032-49.602-28.638l-25.494-95.144c-1.429-5.335 1.736-10.818 7.071-12.247l58.921-15.788c5.335-1.429 10.818 1.736 12.247 7.071l25.494 95.144c5.79 21.605-7.032 43.813-28.637 49.602z" fill="#ae583e"/><path d="m250.977 68.936-111.081 29.765c-4.001 1.072-8.114-1.302-9.186-5.303s1.302-8.114 5.303-9.186l111.082-29.764c4.001-1.072 8.114 1.302 9.186 5.303 1.071 4.001-1.303 8.113-5.304 9.185zm43.479 133.289c-1.072-4.001-5.185-6.375-9.186-5.303l-111.082 29.764c-4.001 1.072-6.375 5.185-5.303 9.186s5.185 6.375 9.186 5.303l111.082-29.764c4.001-1.073 6.375-5.185 5.303-9.186z" fill="#7c3f2c"/></g></svg>