<svg clip-rule="evenodd" fill-rule="evenodd" height="512" image-rendering="optimizeQuality" shape-rendering="geometricPrecision" text-rendering="geometricPrecision" viewBox="0 0 18062 18062" width="512" xmlns="http://www.w3.org/2000/svg"><g id="Layer_x0020_1"><g id="_537341304"><path d="m16092 18062h-14122c-169 0-307-137-307-307v-5800c0-169 138-306 307-306h14122c170 0 307 137 307 307v5799c0 170-137 307-307 307z" fill="#f6ccaf"/><g fill="#a07765"><path d="m11320 16731c-35 0-70-6-104-18-122-44-203-160-203-289v-4469c0-169 138-306 307-306h2675c169 0 306 137 306 307v4468c0 128-79 242-198 287-120 45-255 11-339-84l-1140-1299-1068 1292c-59 71-146 111-236 111z"/><path d="m8951 14405h-4186c-169 0-307-137-307-306 0-170 138-307 307-307h4186c169 0 306 137 306 307 0 169-137 306-306 306z"/><path d="m9648 15568h-5580c-170 0-307-137-307-307 0-169 137-306 307-306h5580c170 0 307 137 307 306 0 170-137 307-307 307z"/><path d="m9648 16731h-5580c-170 0-307-137-307-307 0-169 137-307 307-307h5580c170 0 307 138 307 307 0 170-137 307-307 307z"/></g><path d="m8832 8980c-40 0-79-7-117-23l-2958-1225c-75-31-135-91-166-166l-1225-2958c-32-76-32-160 0-235l1225-2958c31-75 91-135 166-166l2958-1225c75-32 159-32 235 0l2958 1225c75 31 135 91 166 166l1225 2958c31 75 31 159 0 235l-1225 2958c-31 75-91 135-166 166l-2958 1225c-38 16-78 23-118 23z" fill="#ef5350"/><path d="m8832 7516c-1668 0-3025-1357-3025-3026 0-1668 1357-3025 3025-3025 1669 0 3026 1357 3026 3025 0 1669-1357 3026-3026 3026z" fill="#af3d3b"/><path d="m2366 8314c-169 0-307-138-307-307v-1377c0-170 138-307 307-307s307 137 307 307v1377c0 169-138 307-307 307z" fill="#af3d3b"/><path d="m3055 7625h-1378c-169 0-306-137-306-307 0-169 137-306 306-306h1378c169 0 306 137 306 306 0 170-137 307-306 307z" fill="#af3d3b"/><path d="m2862 3619c-169 0-306-138-306-307v-1905c0-170 137-307 306-307 170 0 307 137 307 307v1905c0 169-137 307-307 307z" fill="#409fff"/><path d="m3815 2666h-1905c-169 0-307-137-307-307 0-169 137-306 307-306h1905c169 0 307 137 307 306 0 170-138 307-307 307z" fill="#409fff"/><path d="m15299 3091c-170 0-307-137-307-307v-1377c0-170 137-307 307-307 169 0 306 137 306 307v1377c0 170-137 307-306 307z" fill="#33d476"/><path d="m15987 2402h-1377c-169 0-307-137-307-306 0-170 137-307 307-307h1377c170 0 307 137 307 307 0 169-137 306-307 306z" fill="#33d476"/><path d="m14802 8314c-169 0-307-138-307-307v-1905c0-169 138-307 307-307 170 0 307 138 307 307v1905c0 169-137 307-307 307z" fill="#67b0fa"/><path d="m15755 7361h-1905c-170 0-307-137-307-306 0-170 137-307 307-307h1905c169 0 306 137 306 307 0 169-137 306-306 306z" fill="#67b0fa"/><path d="m17201 12262h-16340c-169 0-307-137-307-307v-2052c0-169 138-307 307-307h16340c170 0 307 138 307 307v2053c0 169-137 306-307 306z" fill="#edb996"/></g></g></svg>