<svg id="Layer_1" height="512" viewBox="0 0 256 256" width="512" xmlns="http://www.w3.org/2000/svg"><g><g><g><path d="m128.006 37.624-105.051 62.319v135.873c0 2.761 2.239 5 5 5h200.103c2.761 0 5-2.239 5-5v-135.873z" fill="#fedbb0"/></g><g><path d="m128.006 37.624-10 5.932 95.052 56.386v135.873c0 2.761-2.239 5-5 5h20c2.761 0 5-2.239 5-5v-135.872z" fill="#e8c197"/></g><g><g><path d="m240.497 102.736c-1.734 0-3.492-.452-5.092-1.401l-107.399-63.711-107.398 63.711c-4.94 2.931-11.377 1.119-14.023-4.083-2.415-4.747-.466-10.576 4.115-13.293l114.756-68.076c1.573-.933 3.529-.933 5.102 0l114.757 68.077c4.773 2.832 6.627 9.017 3.831 13.811-1.861 3.191-5.211 4.965-8.649 4.965z" fill="#725246"/></g></g><g><g><path d="m143.932 166.078v-43.958c0-2.761-2.239-5-5-5h-92.677c-2.761 0-5 2.239-5 5v43.958z" fill="#e59a5c"/><g><path d="m33.006 198.81h119.174v19.483h-119.174z" fill="#c68254"/></g><g><path d="m147.18 166.078h-109.174c-2.761 0-5 2.239-5 5v27.732h119.174v-27.732c0-2.761-2.238-5-5-5z" fill="#8dc8d8"/></g><g><path d="m131.277 166.078h-77.368v-19.783c0-2.761 2.239-5 5-5h67.368c2.761 0 5 2.239 5 5z" fill="#6ea6af"/></g><g><path d="m48.905 240.816h-15.899v-49.566c0-4.39 3.559-7.949 7.949-7.949 4.39 0 7.949 3.559 7.949 7.949v49.566z" fill="#725246"/></g><g><path d="m152.18 240.816h-15.898v-49.566c0-4.39 3.559-7.949 7.949-7.949 4.39 0 7.949 3.559 7.949 7.949z" fill="#725246"/></g></g><g><g><path d="m223.006 192.256h-63.781v-22.227c0-1.067.865-1.933 1.933-1.933h59.915c1.067 0 1.933.865 1.933 1.933z" fill="#c68254"/></g><g><path d="m198.847 161.066h-15.462c-2.669 0-4.832 2.163-4.832 4.832v2.199h25.126v-2.199c0-2.669-2.163-4.832-4.832-4.832z" fill="#827f7e"/></g><g><path d="m189.183 141.39h3.865v19.676h-3.865z" fill="#b2b0ad"/></g><g><path d="m202.406 118.922h-22.58c-.772 0-1.47.46-1.775 1.169l-8.001 18.603c-.549 1.276.387 2.696 1.775 2.696h38.583c1.389 0 2.324-1.421 1.775-2.696l-8.001-18.603c-.305-.71-1.004-1.169-1.776-1.169z" fill="#8dc8d8"/></g><g><path d="m199.813 183.075h-17.395c-1.468 0-2.658-1.19-2.658-2.658 0-1.468 1.19-2.658 2.658-2.658h17.395c1.468 0 2.658 1.19 2.658 2.658 0 1.469-1.19 2.658-2.658 2.658z" fill="#725246"/></g><g><path d="m159.226 197.088h63.781v24.159h-63.781z" fill="#c68254"/></g><g><path d="m159.226 221.247h10.147v19.569h-10.147z" fill="#725246"/></g><g><path d="m212.859 221.247h10.147v19.569h-10.147z" fill="#725246"/></g><g><path d="m159.226 192.256h63.781v4.832h-63.781z" fill="#725246"/></g><g><path d="m199.813 212.067h-17.395c-1.468 0-2.658-1.19-2.658-2.658 0-1.468 1.19-2.658 2.658-2.658h17.395c1.468 0 2.658 1.19 2.658 2.658 0 1.468-1.19 2.658-2.658 2.658z" fill="#725246"/></g></g></g></g><g><path d="m228.058 242.816h-200.103c-3.859 0-7-3.14-7-7v-132.391c-2.702 1.376-5.866 1.683-8.793.834-3.22-.934-5.834-3.1-7.36-6.1-2.855-5.611-.713-12.604 4.877-15.921l114.756-68.075c2.202-1.306 4.939-1.307 7.144 0l114.756 68.077c5.811 3.447 7.847 10.866 4.538 16.539-2.143 3.675-6.118 5.958-10.377 5.958-1.89 0-3.755-.451-5.438-1.31v132.39c0 3.859-3.141 6.999-7 6.999zm-205.103-144.873c.342 0 .683.087.99.262.624.355 1.01 1.019 1.01 1.738v135.873c0 1.654 1.346 3 3 3h200.103c1.654 0 3-1.346 3-3v-135.873c0-.719.386-1.382 1.01-1.738.626-.356 1.393-.349 2.011.018l2.347 1.392c1.235.733 2.644 1.121 4.071 1.121 2.841 0 5.493-1.522 6.922-3.972 2.205-3.782.804-8.754-3.124-11.083l-114.758-68.077c-.944-.561-2.119-.56-3.062 0l-114.755 68.075c-3.782 2.244-5.255 6.929-3.354 10.667 1.02 2.003 2.764 3.45 4.91 4.072 2.149.624 4.388.337 6.311-.803l2.348-1.393c.314-.186.668-.279 1.02-.279z" fill="#422618"/></g></g></svg>