<?xml version="1.0" encoding="UTF-8" standalone="no"?>
<!-- Created with Inkscape (http://www.inkscape.org/) -->

<svg
   version="1.1"
   id="svg1863"
   xml:space="preserve"
   width="682.66669"
   height="682.66669"
   viewBox="0 0 682.66669 682.66669"
   xmlns="http://www.w3.org/2000/svg"
   xmlns:svg="http://www.w3.org/2000/svg"><defs
     id="defs1867"><clipPath
       clipPathUnits="userSpaceOnUse"
       id="clipPath1877"><path
         d="M 0,512 H 512 V 0 H 0 Z"
         id="path1875" /></clipPath></defs><g
     id="g1869"
     transform="matrix(1.3333333,0,0,-1.3333333,0,682.66667)"><g
       id="g1871"><g
         id="g1873"
         clip-path="url(#clipPath1877)"><g
           id="g1879"
           transform="translate(254.2227,279.7407)"><path
             d="m 0,0 c -4.267,0 -7.727,3.459 -7.727,7.727 v 10.56 c 0,4.267 3.46,7.726 7.727,7.726 4.268,0 7.727,-3.459 7.727,-7.726 V 7.727 C 7.727,3.459 4.268,0 0,0"
             style="fill:#4b3f4e;fill-opacity:1;fill-rule:nonzero;stroke:none"
             id="path1881" /></g><g
           id="g1883"
           transform="translate(254.6948,507.9854)"><path
             d="m 0,0 h -120.797 c -8.832,0 -15.993,-7.16 -15.993,-15.993 v -69.365 c 0,-8.833 7.161,-15.993 15.993,-15.993 h 0.782 c 3.343,0 6.052,-2.71 6.052,-6.052 v -20.247 c 0,-3.174 3.69,-4.92 6.144,-2.907 l 33.927,27.833 c 1.082,0.888 2.439,1.373 3.838,1.373 H 0 c 8.833,0 15.993,7.16 15.993,15.993 v 69.365 C 15.993,-7.16 8.833,0 0,0"
             style="fill:#f7d4ad;fill-opacity:1;fill-rule:nonzero;stroke:none"
             id="path1885" /></g><g
           id="g1887"
           transform="translate(257.3052,456.8149)"><path
             d="m 0,0 h 120.797 c 8.832,0 15.993,-7.16 15.993,-15.993 v -72.114 c 0,-8.832 -7.161,-15.993 -15.993,-15.993 h -0.782 c -3.343,0 -6.052,-2.709 -6.052,-6.052 v -20.247 c 0,-3.174 -3.69,-4.919 -6.144,-2.906 l -33.927,27.832 c -1.082,0.888 -2.439,1.373 -3.838,1.373 L 0,-104.1 c -8.833,0 -15.993,7.161 -15.993,15.993 v 72.114 C -15.993,-7.16 -8.833,0 0,0"
             style="fill:#ecbd83;fill-opacity:1;fill-rule:nonzero;stroke:none"
             id="path1889" /></g><g
           id="g1891"
           transform="translate(233.8979,483.4438)"><path
             d="m 0,0 h -85.186 c -4.267,0 -7.726,-3.459 -7.726,-7.727 0,-4.267 3.459,-7.726 7.726,-7.726 H 0 c 4.267,0 7.727,3.459 7.727,7.726 C 7.727,-3.459 4.267,0 0,0"
             style="fill:#e2a876;fill-opacity:1;fill-rule:nonzero;stroke:none"
             id="path1893" /></g><g
           id="g1895"
           transform="translate(204.3545,450.0039)"><path
             d="m 0,0 h -55.642 c -4.267,0 -7.727,-3.459 -7.727,-7.727 0,-4.267 3.46,-7.726 7.727,-7.726 H 0 c 4.267,0 7.727,3.459 7.727,7.726 C 7.727,-3.459 4.267,0 0,0"
             style="fill:#e2a876;fill-opacity:1;fill-rule:nonzero;stroke:none"
             id="path1897" /></g><g
           id="g1899"
           transform="translate(358.791,429.8691)"><path
             d="m 0,0 h -85.186 c -4.267,0 -7.727,-3.459 -7.727,-7.727 0,-4.267 3.46,-7.726 7.727,-7.726 H 0 c 4.267,0 7.727,3.459 7.727,7.726 C 7.727,-3.459 4.267,0 0,0"
             style="fill:#e2a876;fill-opacity:1;fill-rule:nonzero;stroke:none"
             id="path1901" /></g><g
           id="g1903"
           transform="translate(329.2471,396.4282)"><path
             d="m 0,0 h -55.642 c -4.267,0 -7.727,-3.459 -7.727,-7.727 0,-4.267 3.46,-7.726 7.727,-7.726 H 0 c 4.267,0 7.727,3.459 7.727,7.726 C 7.727,-3.459 4.267,0 0,0"
             style="fill:#e2a876;fill-opacity:1;fill-rule:nonzero;stroke:none"
             id="path1905" /></g><g
           id="g1907"
           transform="translate(397.3052,204.7275)"><path
             d="m 0,0 h -285.953 c -10.725,0 -19.42,8.695 -19.42,19.42 v 9.23 H 19.42 V 19.42 C 19.42,8.695 10.726,0 0,0"
             style="fill:#7c5757;fill-opacity:1;fill-rule:nonzero;stroke:none"
             id="path1909" /></g><g
           id="g1911"
           transform="translate(101.5566,124.5527)"><path
             d="m 0,0 c -0.893,4.172 -4.997,6.833 -9.172,5.939 -4.173,-0.893 -6.832,-5 -5.939,-9.172 l 23.79,-111.194 c 0.776,-3.628 3.982,-6.111 7.548,-6.111 0.535,0 1.08,0.056 1.625,0.172 4.172,0.893 6.831,4.999 5.938,9.173 z"
             style="fill:#dad8db;fill-opacity:1;fill-rule:nonzero;stroke:none"
             id="path1913" /></g><g
           id="g1915"
           transform="translate(33.1602,130.4917)"><path
             d="m 0,0 c -4.173,0.894 -8.279,-1.767 -9.172,-5.939 l -23.79,-111.193 c -0.893,-4.174 1.766,-8.28 5.938,-9.173 0.545,-0.116 1.089,-0.172 1.625,-0.172 3.566,0 6.771,2.484 7.547,6.111 L 5.939,-9.172 C 6.832,-5 4.172,-0.893 0,0"
             style="fill:#dad8db;fill-opacity:1;fill-rule:nonzero;stroke:none"
             id="path1917" /></g><g
           id="g1919"
           transform="translate(306.9155,204.7305)"><path
             d="m 0,0 h -105.173 c 4.241,-12.57 12.855,-23.115 24.03,-29.835 7.33,-4.408 11.962,-12.188 11.962,-20.742 v -142.411 h 31.85 V -51.43 c 0,8.758 4.83,16.694 12.417,21.068 C -13.308,-23.671 -4.353,-12.899 0,0"
             style="fill:#dad8db;fill-opacity:1;fill-rule:nonzero;stroke:none"
             id="path1921" /></g><g
           id="g1923"
           transform="translate(289.5464,19.4688)"><path
             d="m 0,0 h -70.435 c -4.267,0 -7.727,-3.459 -7.727,-7.726 0,-4.268 3.46,-7.727 7.727,-7.727 H 0 c 4.267,0 7.727,3.459 7.727,7.727 C 7.727,-3.459 4.267,0 0,0"
             style="fill:#c7c5c9;fill-opacity:1;fill-rule:nonzero;stroke:none"
             id="path1925" /></g><g
           id="g1927"
           transform="translate(114.0508,122.936)"><path
             d="m 0,0 h -101.947 c -6.685,0 -12.104,5.419 -12.104,12.104 V 28.65 H 12.104 V 12.104 C 12.104,5.419 6.685,0 0,0"
             style="fill:#ffc269;fill-opacity:1;fill-rule:nonzero;stroke:none"
             id="path1929" /></g><g
           id="g1931"
           transform="translate(0,151.5864)"><path
             d="m 0,0 v -13.09 h 92.805 c 8.594,0 15.561,-6.967 15.561,-15.56 h 5.685 c 6.684,0 12.103,5.419 12.103,12.103 l 0,16.547 z"
             style="fill:#ff8b59;fill-opacity:1;fill-rule:nonzero;stroke:none"
             id="path1933" /></g><g
           id="g1935"
           transform="translate(163.3628,11.7427)"><path
             d="m 0,0 h -16.429 c -3.103,0 -5.728,2.294 -6.142,5.37 L -40.7,139.873 h -77.163 c -17.252,0 -31.238,13.985 -31.238,31.237 v 21.875 h 118.128 c 20.529,0 37.17,-16.642 37.17,-37.17 V 6.197 C 6.197,2.774 3.423,0 0,0"
             style="fill:#5d5260;fill-opacity:1;fill-rule:nonzero;stroke:none"
             id="path1937" /></g><g
           id="g1939"
           transform="translate(77.3853,380.0991)"><path
             d="m 0,0 v -14.093 c 0,-15.165 -12.28,-27.445 -27.434,-27.445 -9.179,0 -17.297,4.502 -22.283,11.415 -1.196,1.648 -2.205,3.441 -3.009,5.347 -1.38,3.276 -2.153,6.892 -2.153,10.683 V 0 c 0,15.154 12.291,27.445 27.445,27.445 7.572,0 14.433,-3.07 19.398,-8.036 2.844,-2.843 5.069,-6.315 6.439,-10.188 C -0.556,6.346 0,3.235 0,0"
             style="fill:#f7d4ad;fill-opacity:1;fill-rule:nonzero;stroke:none"
             id="path1941" /></g><g
           id="g1943"
           transform="translate(75.7886,389.3198)"><path
             d="m 0,0 -0.608,0.113 -25.065,-10.817 c -1.37,-0.587 -2.421,-1.762 -2.843,-3.204 l -1.02,-3.441 c 0,0 -1.967,-16.308 -16.401,-21.346 -0.752,-0.257 -1.483,-0.473 -2.184,-0.649 -1.195,1.649 -2.205,3.441 -3.008,5.347 -1.38,3.276 -2.153,6.892 -2.153,10.684 v 14.092 c 0,15.155 12.29,27.445 27.445,27.445 7.571,0 14.433,-3.07 19.398,-8.036 C -3.595,7.345 -1.37,3.874 0,0"
             style="fill:#6e4848;fill-opacity:1;fill-rule:nonzero;stroke:none"
             id="path1945" /></g><g
           id="g1947"
           transform="translate(511.8022,13.3594)"><path
             d="m 0,0 -23.79,111.193 c -0.893,4.173 -4.999,6.833 -9.172,5.939 -4.173,-0.893 -6.831,-4.999 -5.939,-9.172 l 23.79,-111.194 c 0.776,-3.627 3.982,-6.111 7.548,-6.111 0.535,0 1.08,0.056 1.624,0.173 C -1.766,-8.279 0.893,-4.173 0,0"
             style="fill:#dad8db;fill-opacity:1;fill-rule:nonzero;stroke:none"
             id="path1949" /></g><g
           id="g1951"
           transform="translate(419.6157,130.4917)"><path
             d="m 0,0 c -4.175,0.894 -8.279,-1.767 -9.172,-5.939 l -23.79,-111.193 c -0.893,-4.174 1.766,-8.28 5.939,-9.173 0.545,-0.116 1.088,-0.172 1.624,-0.172 3.566,0 6.772,2.484 7.548,6.111 L 5.938,-9.172 C 6.832,-5 4.172,-0.893 0,0"
             style="fill:#dad8db;fill-opacity:1;fill-rule:nonzero;stroke:none"
             id="path1953" /></g><g
           id="g1955"
           transform="translate(397.9492,122.936)"><path
             d="m 0,0 h 101.947 c 6.685,0 12.104,5.419 12.104,12.104 V 28.65 H -12.104 V 12.104 C -12.104,5.419 -6.685,0 0,0"
             style="fill:#ffc269;fill-opacity:1;fill-rule:nonzero;stroke:none"
             id="path1957" /></g><g
           id="g1959"
           transform="translate(385.8457,151.5864)"><path
             d="m 0,0 v -12.083 h 95.381 c 9.138,0 16.546,-7.408 16.546,-16.547 0,-0.007 -0.001,-0.014 -0.001,-0.02 h 2.125 c 6.684,0 12.103,5.419 12.103,12.103 l 0,16.547 z"
             style="fill:#ff8b59;fill-opacity:1;fill-rule:nonzero;stroke:none"
             id="path1961" /></g><g
           id="g1963"
           transform="translate(497.7383,204.7275)"><path
             d="m 0,0 v 87.544 c 0,14.141 -5.615,27.702 -15.609,37.705 -14.38,14.391 -38.795,10.916 -47.517,-7.463 L -83.769,81.881 -79.621,0 Z"
             style="fill:#b8b6ff;fill-opacity:1;fill-rule:nonzero;stroke:none"
             id="path1965" /></g><g
           id="g1967"
           transform="translate(348.6372,11.7427)"><path
             d="m 0,0 h 16.429 c 3.103,0 5.728,2.294 6.142,5.37 L 40.7,139.873 h 77.163 c 17.252,0 31.238,13.985 31.238,31.237 v 21.875 H 30.973 c -20.529,0 -37.17,-16.642 -37.17,-37.17 V 6.197 C -6.197,2.774 -3.423,0 0,0"
             style="fill:#5d5260;fill-opacity:1;fill-rule:nonzero;stroke:none"
             id="path1969" /></g><g
           id="g1971"
           transform="translate(455.854,271.8008)"><path
             d="m 0,0 -35.786,-38.423 h -87.962 c 0,15.982 11.558,29.621 27.324,32.243 l 46.964,7.81 30.148,52.44 c 2.961,0.787 16.268,4.016 24.649,-2.991 C 15.787,42.342 16.568,19.377 0,0"
             style="fill:#a09eef;fill-opacity:1;fill-rule:nonzero;stroke:none"
             id="path1973" /></g><g
           id="g1975"
           transform="translate(489.4907,380.4082)"><path
             d="m 0,0 v -14.093 c 0,-5.285 -1.494,-10.219 -4.08,-14.402 -4.821,-7.819 -13.475,-13.043 -23.354,-13.043 -15.154,0 -27.445,12.29 -27.445,27.445 V 0 c 0,2.37 0.299,4.667 0.865,6.861 v 0.011 c 1.247,4.821 3.761,9.127 7.171,12.537 4.976,4.966 11.837,8.036 19.409,8.036 C -12.28,27.445 0,15.165 0,0"
             style="fill:#f7d4ad;fill-opacity:1;fill-rule:nonzero;stroke:none"
             id="path1977" /></g><g
           id="g1979"
           transform="translate(489.4907,380.4082)"><path
             d="m 0,0 v -14.093 c 0,-5.285 -1.494,-10.219 -4.08,-14.402 -2.493,0.505 -5.161,1.453 -7.777,3.08 -9.726,6.037 -18.215,16.978 -18.215,16.978 l -1.03,3.441 c -0.422,1.442 -1.462,2.617 -2.843,3.204 l -20.069,8.653 v 0.011 c 1.247,4.821 3.761,9.127 7.171,12.537 4.976,4.966 11.837,8.036 19.409,8.036 C -12.28,27.445 0,15.165 0,0"
             style="fill:#6e4848;fill-opacity:1;fill-rule:nonzero;stroke:none"
             id="path1981" /></g><g
           id="g1983"
           transform="translate(14.2583,204.8398)"><path
             d="m 0,0 v 87.551 c 0,14.141 5.615,27.704 15.61,37.707 v 0.001 c 14.381,14.391 38.798,10.916 47.521,-7.464 L 73.601,82.318 79.626,0 Z"
             style="fill:#b2e59f;fill-opacity:1;fill-rule:nonzero;stroke:none"
             id="path1985" /></g><g
           id="g1987"
           transform="translate(56.1455,291.4097)"><path
             d="m 0,0 61.879,-23.272 72.769,24.167 c 0,14.018 -13.555,24.042 -26.959,19.937 L 65.981,8.056 9.36,43.938 C -1.441,45.017 -11.404,39.264 -14.989,30.484 -19.499,19.438 -13.358,4.97 0,0"
             style="fill:#95d5a4;fill-opacity:1;fill-rule:nonzero;stroke:none"
             id="path1989" /></g><g
           id="g1991"
           transform="translate(200.9111,233.6445)"><path
             d="M 0,0 C 0,29.443 23.869,53.311 53.312,53.311 82.754,53.311 106.623,29.443 106.623,0"
             style="fill:#fee07d;fill-opacity:1;fill-rule:nonzero;stroke:none"
             id="path1993" /></g></g></g></g></svg>
