<?xml version="1.0" encoding="UTF-8"?>
<!-- Generator: Adobe Illustrator 26.0.1, SVG Export Plug-In . SVG Version: 6.00 Build 0)  -->
<svg xmlns="http://www.w3.org/2000/svg" xmlns:xlink="http://www.w3.org/1999/xlink" version="1.1" id="Capa_1" x="0px" y="0px" viewBox="0 0 512 512" style="enable-background:new 0 0 512 512;" xml:space="preserve" width="512" height="512">
<g>
	<path style="fill:#4C4C4C;" d="M465.946,311.896l-14.914-168.015L276.267,0v91.733l81.067,46.933c3.2,2.133,3.2,6.4,0,7.467   l-96,55.467c-3.2,2.133-6.4,1.067-8.533,0l-96-55.467c-3.2-1.067-3.2-6.4,0-7.467l81.067-46.933V0l-208,119.467V358.4v-1.067v1.067   l78.933-45.867v-93.867c0-3.2,4.267-5.333,6.4-4.267l96,55.467c3.2,2.133,4.267,4.267,4.267,7.467v110.933   c0,3.2-4.267,5.333-6.4,4.267L128,345.6l-78.933,45.867L256,512l206.933-119.467L384,346.667L302.933,393.6   c-3.2,2.133-6.4,0-6.4-4.267V278.4c0-3.2,2.133-6.4,4.267-7.467l96-55.467c3.2-2.133,6.4,0,6.4,4.267V313.6   C403.2,313.6,465.946,311.896,465.946,311.896z"/>
	<path d="M256,512l206.933-119.467L384,346.667L302.933,393.6c-3.2,2.133-6.4,0-6.4-4.267V278.4c0-3.2,2.133-6.4,4.267-7.467   l96-55.467c3.2-2.133,6.4,0,6.4,4.267V313.6l78.933,45.867v-240l-133.09,42.779L256,250.667V512z"/>
	<path style="fill:#808080;" d="M276.267,0v91.733l81.067,46.933c3.2,2.133,3.2,6.4,0,7.467l-96,55.467   c-3.2,2.133-6.4,1.067-8.533,0l-96-55.467c-3.2-1.067-3.2-6.4,0-7.467l81.067-46.933V0l-208,119.467L256,250.667l226.133-131.2   L276.267,0z"/>
</g>















</svg>
